# xmcd
#
# Track frame offsets:
#	150
#	10239
#	19720
#	31064
#	42420
#	51152
#	64607
#	81454
#	94602
#	107777
#	118722
#	129814
#	139884
#	152010
#	162857
#	172328
#	184702
#	196495
#	208810
#	224322
#	236307
#
# Disc length: 3284 seconds
#
# Revision: 1
# Processed by: cddbd v1.5.2PL0 Copyright (c) Steve Scherf et al.
# Submitted via: audiograbber 1.83.01
#
DISCID=210cd215
DTITLE=Various Artist - 125 Country Hits CD 5
DYEAR=1900
DGENRE=Country
TTITLE0=FARON YOUNG - Hello Walls
TTITLE1=MERLE HAGGARD - The Legend Of Bonnie And Clyde
TTITLE2=PORTER WAGONER - Misery Loves Company
TTITLE3=PATSY CLINE - Crazy Dreams
TTITLE4=BUCK OWENS - After The Dance
TTITLE5=MERLE HAGGARD - Cherokee Maiden
TTITLE6=FERLIN HUSKY - Giddyup Go
TTITLE7=FREDDY FENDER - Something On Your Mind
TTITLE8=FREDDY FENDER - Wasted Days and Wasted Nights
TTITLE9=ROGER MILLER - Husbands And Wives
TTITLE10=PATSY CLINE - A Stranger In My Arms
TTITLE11=JOHNNY CASH - Get Rhythm
TTITLE12=HANK THOMPSON - Wild Side Of Life
TTITLE13=GENE AUTRY - Can't Shake The Sands Of Texas From My Shoes
TTITLE14=WILLIE NELSON - I'm Building Heartaches
TTITLE15=MERLE HAGGARD - The Roots Of My Raising
TTITLE16=LYNN ANDERSON - You're My Man
TTITLE17=SAMMI SMITH - Send Me The Pillow That You Dream On
TTITLE18=DON WILLIAMS - Tears
TTITLE19=BILLIE JO SPEARS - Look What They've Done To My Song Ma
TTITLE20=PORTER WAGONER - The Green Green Grass Of Home
EXTD=
EXTT0=
EXTT1=
EXTT2=
EXTT3=
EXTT4=
EXTT5=
EXTT6=
EXTT7=
EXTT8=
EXTT9=
EXTT10=
EXTT11=
EXTT12=
EXTT13=
EXTT14=
EXTT15=
EXTT16=
EXTT17=
EXTT18=
EXTT19=
EXTT20=
PLAYORDER=
